<?xml version="1.0" encoding="UTF-8"?>
<svg width="47px" height="47px" viewBox="0 0 47 47" version="1.1" xmlns="http://www.w3.org/2000/svg" xmlns:xlink="http://www.w3.org/1999/xlink">
    <!-- Generator: Sketch 63.1 (92452) - https://sketch.com -->
    <title>编组</title>
    <desc>Created with Sketch.</desc>
    <g id="中文版" stroke="none" stroke-width="1" fill="none" fill-rule="evenodd">
        <g id="price" transform="translate(-557.000000, -743.000000)" fill="#4B6475" fill-rule="nonzero">
            <g id="Group-15-Copy" transform="translate(557.000000, 637.000000)">
                <g id="编组" transform="translate(0.000000, 106.000000)">
                    <path d="M46.9751158,20.6479687 C46.9377895,19.7708118 46.9004633,18.899876 46.863137,18.0227191 C46.6889477,16.9153864 46.7511582,15.7769487 46.5520847,14.7131628 C46.458769,14.1221706 46.3654533,13.5311784 46.2783587,12.9401862 C45.9548643,11.4595952 45.643812,10.0598768 45.1336863,8.78457784 C44.1880874,6.42060902 42.7323627,4.42989844 40.7043018,3.14837851 C36.3557909,0.411151459 29.8859034,-0.0180955093 22.7690271,0.000567402286 C22.0598279,0.0130093435 21.3506287,0.0254512847 20.6414295,0.0316722551 C20.2059563,0.0503351667 19.7704831,0.0627771079 19.3350099,0.0814400194 C19.0239576,0.0938819607 18.7191264,0.112544872 18.4080741,0.124986813 C17.574454,0.18719652 16.7346128,0.255627195 15.9009927,0.317836901 C15.4468564,0.373825636 14.9927201,0.4235934 14.5385837,0.479582135 C13.5183322,0.666211252 12.5105228,0.778188722 11.5587028,1.0145856 C7.16664461,2.12813933 4.59735275,3.77669653 2.56929186,7.26666102 C1.56148246,8.99609084 1.13845136,11.1298837 0.646988749,13.394317 C0.541230973,14.1594964 0.441694242,14.9184548 0.335936466,15.6836342 C0.261283918,16.5918959 0.192852416,17.5001576 0.118199868,18.4084193 C0.105757776,18.7194678 0.0933156849,19.0242954 0.0808735935,19.3353439 C0.0559894107,20.168954 0.0248841823,21.008785 0,21.842395 L0,24.392993 C0.0124420914,25.1768353 0.0311052283,25.9668985 0.0497683657,26.7507408 C0.0684315026,27.2981862 0.08709464,27.8456316 0.105757776,28.3868561 C0.130641959,28.7601143 0.155526142,29.1271516 0.174189279,29.5004098 C0.335936466,30.4957651 0.292389147,31.5097833 0.472799471,32.4678128 C0.746525479,33.9359618 0.920714758,35.3543431 1.33130377,36.6607469 C2.4386499,40.2129211 4.10589014,42.5893319 7.03600265,44.3063197 C8.34242224,45.0777201 9.91012574,45.5691768 11.5587028,45.9922028 C12.1683653,46.1166222 12.7780278,46.2348206 13.3876903,46.35924 C14.1528789,46.4649965 14.9180675,46.5645321 15.6770351,46.6702886 C16.6537392,46.7449402 17.6304434,46.8258128 18.6071476,46.9004645 C18.936863,46.9129064 19.2727995,46.9253484 19.6025149,46.9315693 L21.7114494,46.9875581 C22.0598279,46.993779 22.4144275,46.993779 22.7628061,47 L24.2247518,47 C25.1765718,46.9875581 26.1346128,46.9688951 27.0864328,46.9502322 C27.3601588,46.9377903 27.6401059,46.9253484 27.9076109,46.9191274 C28.7225678,46.8631386 29.5437459,46.8133709 30.3587028,46.7573821 C31.05546,46.6827305 31.7584381,46.6018579 32.4551952,46.5272062 C34.0228987,46.2348206 35.5221707,46.0233076 36.9094639,45.5878397 C39.92045,44.6360312 42.1538054,43.1243353 43.7837194,40.7976923 C45.0403706,39.0122738 45.6811383,36.7416195 46.2348114,34.2470103 C46.3530113,33.47561 46.4712111,32.6979887 46.589411,31.9203674 C46.6765056,30.9996637 46.7573792,30.0727391 46.8444739,29.1458145 C46.8569159,28.816103 46.8755791,28.4801706 46.8942422,28.1504592 C46.9253475,27.3977218 46.9564527,26.6387633 46.9875579,25.8798049 L46.9875579,25.2701498 C46.993779,24.9217755 46.993779,24.5671802 47,24.2125848 L47,21.6930918 C46.993779,21.3571593 46.9813369,21.002564 46.9751158,20.6479687 L46.9751158,20.6479687 Z M38.6389146,26.4396923 C38.6202515,26.5578907 38.5953673,26.6698682 38.5704831,26.7818457 C36.6668432,35.2050398 28.3679682,40.4617599 20.0379881,38.5208171 C13.2881535,36.9469116 8.59748511,31.1303041 8.06869623,24.4987495 C8.00026473,23.3603119 8.80900066,23.123915 9.63639974,23.5593829 C10.2833885,23.9015363 14.718994,26.4396923 15.2477829,26.7756247 C15.7827929,27.1177781 15.6521509,27.7896429 15.0673726,27.8518526 C14.4825943,27.9140623 12.6536069,28.0758075 12.6536069,28.0758075 C14.1031105,31.4537946 17.0394441,34.11637 20.840503,35.0059688 C27.2108537,36.5052227 33.7180675,32.4615918 35.1800132,25.9793405 C35.2111185,25.8487001 35.2048974,25.867363 35.2608868,25.5811984 C35.3106552,25.2950337 35.3977498,24.8595658 35.9576439,25.0524159 C36.5175381,25.2452659 37.8861681,25.6434081 38.3091992,25.7616065 C38.7384514,25.8798049 38.688683,26.0477711 38.6389146,26.4396923 L38.6389146,26.4396923 Z M19.2168101,24.2685736 C18.7377895,24.2685736 18.3458637,23.8953153 18.3458637,23.4287425 C18.3458637,22.9621697 18.7315685,22.5889115 19.2168101,22.5889115 L22.3335539,22.5889115 L22.3335539,21.643324 L19.1981469,18.5515016 C18.806221,18.1658014 18.8124421,17.5437044 19.210589,17.1704462 C19.6087359,16.7909669 20.2495036,16.7971879 20.6414295,17.1828881 L23.4968895,19.9947668 L26.3523494,17.1828881 C26.7442753,16.7971879 27.385043,16.7909669 27.7831899,17.1704462 C28.1813369,17.5499254 28.1875579,18.1720224 27.795632,18.5515016 L24.660225,21.643324 L24.660225,22.5889115 L27.7769689,22.5889115 C28.2559894,22.5889115 28.6416942,22.9621697 28.6416942,23.4287425 C28.6416942,23.8953153 28.2497684,24.2685736 27.7769689,24.2685736 L24.660225,24.2685736 L24.660225,25.4816628 L27.7769689,25.4816628 C28.2559894,25.4816628 28.6416942,25.8549211 28.6416942,26.3214939 C28.6416942,26.7880666 28.2497684,27.1613249 27.7769689,27.1613249 L24.660225,27.1613249 L24.660225,28.9840693 C24.660225,29.6061663 24.1376572,30.1100649 23.4968895,30.1100649 C22.8561218,30.1100649 22.339775,29.6061663 22.339775,28.9902902 L22.339775,27.1675458 L19.2230311,27.1675458 C18.7440106,27.1675458 18.3520847,26.7942876 18.3520847,26.3277148 C18.3520847,25.861142 18.7377895,25.4878838 19.2230311,25.4878838 L22.339775,25.4878838 L22.339775,24.2747945 L19.2168101,24.2685736 L19.2168101,24.2685736 Z M38.0354732,23.7149171 C36.9965586,23.7211282 31.9015222,20.797272 31.739775,20.6479687 C31.3540702,20.2809314 31.4971542,19.8268006 31.8953011,19.7645909 C32.293448,19.7023812 34.5081403,19.4411004 34.5081403,19.4411004 C33.1395103,15.8142746 30.10364,12.9215233 26.1097287,11.9883777 C19.7455989,10.4891238 13.1575116,14.7318257 11.7017869,21.214077 C11.6893448,21.2700658 11.6022502,21.9294886 11.0734613,21.9108257 C10.7126406,21.8983838 9.54308405,21.431811 9.12627399,21.2389609 C8.64103243,21.015006 8.51661152,21.0709947 8.65969557,20.3493621 C10.3144937,12.1127971 18.8,6.55747038 26.9433488,8.46108737 C33.6994044,10.0349929 38.3962938,15.8702633 38.9064196,22.5142599 C38.9935142,23.3914167 38.5331568,23.7086862 38.0354732,23.7149171 L38.0354732,23.7149171 Z" id="形状"></path>
                </g>
            </g>
        </g>
    </g>
</svg>