<?xml version="1.0" encoding="UTF-8"?>
<svg width="189.462823px" height="22px" viewBox="0 0 189.462823 22" version="1.1" xmlns="http://www.w3.org/2000/svg" xmlns:xlink="http://www.w3.org/1999/xlink">
    <title>编组 9</title>
    <g id="中文版" stroke="none" stroke-width="1" fill="none" fill-rule="evenodd">
        <g id="home" transform="translate(-320, -479)" fill="#FFFFFF">
            <g id="text" transform="translate(257, 196)">
                <g id="Group-32" transform="translate(0, 283)">
                    <g id="编组-9" transform="translate(63, 0)">
                        <g id="windows" transform="translate(0, 1)">
                            <path d="M8.05120612,8.99782264 C7.11936904,8.51538433 6.21377712,8.27031482 5.35813642,8.27031482 C5.24187652,8.27031482 5.12505508,8.27415287 5.0074524,8.28424006 C3.91626455,8.37487716 2.91938833,8.66521601 2.27812778,8.89077542 C2.10810804,8.95370964 1.93376701,9.01984224 1.75437226,9.09355254 L0,15.2231442 C1.20495753,14.773354 2.27126742,14.5548064 3.24756256,14.5548064 C4.82627542,14.5548064 5.97249264,15.1494093 6.91939321,15.7616033 C7.36809981,14.2279568 8.44373589,10.5245557 8.76504976,9.41722832 C8.53128483,9.27433466 8.29439489,9.13075212 8.05120612,8.99782264 Z M10.3193485,10.5559737 L8.55313544,16.7391013 C9.07745249,17.0414463 10.8400523,18 12.1899807,18 C13.2800211,18 14.4994073,17.7184936 15.9174999,17.1377421 L17.6043672,11.1940253 C16.4593951,11.5662426 15.3606633,11.7551683 14.3337333,11.7551683 C12.458731,11.7558572 11.1468398,11.1436632 10.3193485,10.5559737 Z M5.71939175,6.18118397 C7.22561917,6.19695443 8.33941448,6.77578692 9.26248689,7.37221048 L11.0737928,1.12614865 C10.6918588,0.90568204 9.69068566,0.356446849 8.96683223,0.169415585 C8.49065978,0.0572755566 7.98999999,0 7.45879817,0 C6.44683404,0.0189196319 5.34192547,0.27456839 4.08191416,0.78352863 L2.35434858,6.89668558 C3.61995071,6.41547741 4.71057704,6.18118397 5.71565639,6.18118397 L5.71939175,6.18118397 Z M20,2.82163306 C18.8512925,3.2713003 17.7306369,3.49993508 16.6593709,3.49993508 C14.8687437,3.49993508 13.5481122,2.87391423 12.6925692,2.27239787 L10.8968883,8.53614918 C12.1030909,9.31775878 13.4024822,9.714579 14.766229,9.714579 C15.8788036,9.714579 17.030636,9.44557086 18.1931619,8.91345929 L18.1893533,8.86991215 L18.2624979,8.85232108 L20,2.82163306 Z" id="Fill-1"></path>
                        </g>
                        <g id="苹果" transform="translate(45.25, 1)">
                            <path d="M12.5278202,9.56504958 C12.553367,12.2870005 14.9718364,13.1927794 15,13.2053917 C14.9780354,13.2677061 14.6124658,14.4964611 13.7238204,15.7658875 C12.9558947,16.8628944 12.1605775,17.953727 10.9055045,17.976205 C9.67072307,17.9987929 9.27531673,17.2616762 7.86441065,17.2616762 C6.45431966,17.2616762 6.01309647,17.953727 4.84609651,17.9987929 C3.63602528,18.0439248 2.71299579,16.8150819 1.93880674,15.7225574 C0.355272352,13.4869273 -0.853104346,9.40627515 0.770948789,6.65187064 C1.5768407,5.28321575 3.01859165,4.41804234 4.58189884,4.39461948 C5.77178578,4.37385532 6.89556431,5.17860392 7.62125527,5.17860392 C8.34962747,5.17860392 9.7138587,4.21145541 11.1485741,4.35306919 C11.7484189,4.37745884 13.4349983,4.58945104 14.5173786,6.13586474 C14.4310645,6.19088427 12.5049332,7.28437557 12.5278202,9.56504958 Z M7.47595406,4.14828402 C7.3367875,3.11350366 7.85821165,2.03805192 8.45359484,1.36230479 C9.11853986,0.601765184 10.2405595,0.0360571317 11.1670853,0 C11.2859818,1.05374276 10.8509576,2.11203386 10.2088781,2.87437523 C9.56506116,3.63407987 8.50990067,4.2268143 7.47595406,4.14828402 Z" id="Fill-1"></path>
                        </g>
                        <g id="安卓" transform="translate(85.5, 0)">
                            <path d="M16.7142878,6.56227883 C16.0071283,6.56227883 15.4286055,7.15289533 15.4286055,7.87483762 L15.4286055,13.1252551 C15.4286055,13.8471974 16.0071283,14.4378443 16.7142878,14.4378443 C17.4214474,14.4378443 18,13.8471974 18,13.1252551 L18,7.87483762 C18,7.15362475 17.4206436,6.56227883 16.7142878,6.56227883 Z M1.28571216,6.56227883 C0.57855261,6.56227883 0,7.15289533 0,7.87483762 L0,13.1252551 C0,13.8471974 0.57855261,14.4378443 1.28571216,14.4378443 C1.99284194,14.4378443 2.57139455,13.8471974 2.57139455,13.1252551 L2.57139455,7.87483762 C2.57139455,7.15362475 1.99284194,6.56227883 1.28571216,6.56227883 Z M3.21448879,15.0937742 C3.21448879,16.1814896 4.07814989,17.0621413 5.1427891,17.0621413 L5.78528793,17.0621413 L5.78528793,19.6874108 C5.78528793,20.4093531 6.36384054,21 7.07100009,21 C7.77812987,21 8.35668248,20.4093531 8.35668248,19.6874108 L8.35668248,17.0621413 L9.64239464,17.0621413 L9.64239464,19.6874108 C9.64239464,20.4093531 10.2209175,21 10.928077,21 C11.6352366,21 12.2137892,20.4093531 12.2137892,19.6874108 L12.2137892,17.0621413 L12.8561689,17.0621413 C13.921731,17.0621413 14.7843502,16.1806386 14.7843502,15.0937742 L14.7843502,7.87483762 L3.21448879,7.87483762 L3.21448879,15.0937742 L3.21448879,15.0937742 Z M11.3827562,1.83564483 L12.1965523,0.240162713 C12.2376053,0.160382529 12.207597,0.0605433268 12.1286466,0.0193615555 C12.0505001,-0.0225496347 11.9525861,0.00817713345 11.9123667,0.0886867365 L11.0860075,1.70827007 C10.438031,1.45291269 9.7347118,1.31268192 8.99998511,1.31268192 C8.26516912,1.31268192 7.56184992,1.45291269 6.91470694,1.70909066 L6.0891516,0.0878357479 C6.0480986,0.00817713345 5.95098845,-0.0232790535 5.87284187,0.0185105668 C5.79469529,0.0605433268 5.76388322,0.159683502 5.80493622,0.239342117 L6.61873235,1.83564483 C4.79787243,2.67678631 3.47985968,4.4527388 3.25170145,6.56309943 L14.7521389,6.56309943 C14.5208548,4.45188781 13.2028123,2.67678631 11.3827562,1.83564483 Z M6.42859057,5.54543859 C5.91401396,5.54543859 5.49642841,5.11909329 5.49642841,4.59375977 C5.49642841,4.06842625 5.91389488,3.64211134 6.42859057,3.64211134 C6.94319695,3.64211134 7.36066341,4.06842625 7.36066341,4.59375977 C7.36066341,5.11909329 6.94319695,5.54543859 6.42859057,5.54543859 Z M11.5713797,5.54543859 C11.0568031,5.54543859 10.6392175,5.11909329 10.6392175,4.59375977 C10.6392175,4.06842625 11.0568031,3.64211134 11.5713797,3.64211134 C12.085986,3.64211134 12.5035716,4.06842625 12.5035716,4.59375977 C12.5035716,5.11909329 12.085986,5.54543859 11.5713797,5.54543859 Z" id="andriod"></path>
                        </g>
                        <g id="手机" transform="translate(128.75, 0)">
                            <path d="M0.00062917537,21 L0,0 L14,0 L13.9984134,21 L0.00062917537,21 Z M7.12940496,20.1561375 C7.85123324,20.1561375 8.43584658,19.5295286 8.43584658,18.7560221 C8.43584658,17.9824864 7.85123324,17.356112 7.12940496,17.356112 C6.40757668,17.356112 5.82307276,17.9824864 5.82307276,18.7560221 C5.82307276,19.5295286 6.40757668,20.1561375 7.12940496,20.1561375 Z M1.39939544,16.4939569 L12.5947231,16.4939569 L12.5947231,1.50078313 L1.39939544,1.50078313 L1.39939544,16.4939569 Z" id="Fill-1"></path>
                            <g id="Group-6" transform="translate(3.7333, 5.7273)">
                                <path d="M2.6776515,4.02937738 L2.6776515,7.01696518 L0,6.58551502 L0,4.02937738 L2.6776515,4.02937738 Z M2.6776515,0.619430585 L2.6776515,3.64371499 L0,3.64371499 L0,1.05084862 L2.6776515,0.619430585 Z M6.53333333,4.02937738 L6.53333333,7.63636364 L2.9721797,7.06277436 L2.9721797,4.02937738 L6.53333333,4.02937738 Z M6.53333333,6.48370246e-14 L6.53333333,3.64371499 L2.9721797,3.64371499 L2.9721797,0.573589274 L6.53333333,6.48370246e-14 Z" id="windows-(1)"></path>
                            </g>
                        </g>
                        <g id="Linux" transform="translate(168, 0)" fill-rule="nonzero">
                            <path d="M2.30382493,8.64207798 C3.57292801,8.64207798 4.6076795,9.67321311 4.6076795,10.9386998 C4.6076795,12.2041866 3.57292801,13.2353217 2.30385457,13.2353217 C1.03475149,13.231735 0,12.2005702 0,10.9350835 C0,9.67321311 1.03475149,8.64207798 2.30385457,8.64207798 L2.30382493,8.64207798 Z M12.5611385,1.84235446 C13.1308031,1.84235446 13.6860024,1.89642191 14.2232088,1.9973834 C14.2123894,2.09472853 14.2088027,2.19207366 14.2088027,2.29300551 C14.2088027,4.05603732 15.6509572,5.49457547 17.4175757,5.49457547 C18.1134274,5.49457547 18.755182,5.27463001 19.281569,4.89609854 C20.503778,6.29135902 21.2969452,8.0688266 21.4555905,10.0193456 L17.821392,10.1310969 C17.5185372,7.50639464 15.2723961,5.4585305 12.5611385,5.4585305 C11.7968132,5.4585305 11.0649165,5.62076251 10.4087261,5.91641426 L8.59162687,2.77611482 C9.78502366,2.17763789 11.1370065,1.84235446 12.5611385,1.84235446 L12.5611385,1.84235446 Z" id="形状"></path>
                            <path d="M17.540176,17.4067563 C18.8092495,17.4067563 19.8404142,18.4378914 19.8404142,19.7033781 C19.8404142,20.9688649 18.8056627,22 17.540176,22 C16.2710729,22 15.2363215,20.9688649 15.2363215,19.7033781 C15.2399378,18.4378914 16.2746893,17.4067563 17.540176,17.4067563 Z M7.47034967,18.0376915 C5.92006025,16.9560756 4.72304712,15.3985535 4.1065477,13.5814542 C4.95378235,13.0045865 5.5126276,12.0347218 5.5126276,10.9350835 C5.5126276,9.79581344 4.90691796,8.78987421 4.00196986,8.22385554 C4.57163453,6.29859172 5.78302416,4.64010811 7.38382396,3.49722171 L9.29826835,6.58339441 C8.06162353,7.54964268 7.26483999,9.05668406 7.26483999,10.7404229 C7.26483999,12.4096962 8.0472174,13.9023315 9.26583974,14.8685501 L7.47034967,18.0376915 L7.47034967,18.0376915 Z" id="形状"></path>
                            <path d="M21.4628232,11.3677417 C21.3149974,13.4913121 20.413636,15.4093729 19.0255786,16.8659335 C18.5821306,16.6351983 18.0773528,16.5018082 17.5437627,16.5018082 C15.8564669,16.5018082 14.4683798,17.8105429 14.3421928,19.4582071 C13.7653547,19.5735747 13.1704348,19.6384616 12.5611385,19.6384616 C11.1622616,19.6384616 9.83909111,19.3139976 8.6601301,18.7407462 L10.4700263,15.5932437 C11.1117809,15.8708433 11.818452,16.0222856 12.5611385,16.0222856 C15.2831858,16.0222856 17.5401464,13.9527826 17.8250084,11.3136742 L21.4628232,11.3677417 L21.4628232,11.3677417 Z M17.4176053,0 C18.6867084,0 19.7214599,1.03113514 19.7214599,2.29662186 C19.7214599,3.56210859 18.6867084,4.59324372 17.4176053,4.59324372 C16.1485023,4.59324372 15.1137804,3.56210859 15.1137804,2.29662186 C15.1173671,1.03113514 16.1521483,0 17.4176053,0 Z" id="形状"></path>
                        </g>
                    </g>
                </g>
            </g>
        </g>
    </g>
</svg>